<mxfile host="app.diagrams.net" modified="2024-06-12T12:00:01.386Z" agent="Mozilla/5.0 (Macintosh; Intel Mac OS X 10_15_7) AppleWebKit/537.36 (KHTML, like Gecko) Chrome/124.0.0.0 Safari/537.36" etag="k3E_VExcvlgtt2y6CLZ2" version="24.5.3" type="github">
  <diagram name="第 1 页" id="iz8pMx9qGxxg1Y20zPy3">
    <mxGraphModel dx="2074" dy="1020" grid="1" gridSize="10" guides="1" tooltips="1" connect="1" arrows="1" fold="1" page="1" pageScale="1" pageWidth="1654" pageHeight="2336" math="0" shadow="0">
      <root>
        <mxCell id="0" />
        <mxCell id="1" parent="0" />
      </root>
    </mxGraphModel>
  </diagram>
</mxfile>
